# xmcd
#
# Track frame offsets:
#	150
#	12592
#	28325
#	38699
#	53857
#	69149
#	81891
#	96586
#	118281
#	140026
#	154771
#	169718
#	182634
#	205725
#
# Disc length: 3004 seconds
#
# Revision: 1
# Processed by: cddbd v1.5.2PL0 Copyright (c) Steve Scherf et al.
# Submitted via: audiograbber 1.83.01
#
DISCID=c40bba0e
DTITLE=Remington Ryde - LIVE at Sertoma Youth Ranch
DYEAR=1900
DGENRE=Bluegrass
TTITLE0=TAKE ME IN YOUR LIFEBOAT
TTITLE1=DIM LIGHTS THICK SMOKE
TTITLE2=PHILADELPHIA LAWYER
TTITLE3=JONES, HAGGARD and CASH
TTITLE4=REMINGTON RYDE
TTITLE5=THE DARKEST HOUR
TTITLE6=EMMY LOU
TTITLE7=ALL I EVER LOVED WAS YOU
TTITLE8=ME and JESUS
TTITLE9=RAG TIME ANNIE
TTITLE10=WALKING THE DOG
TTITLE11=NOBODY'S LOVE
TTITLE12=PENNSYLVANIA YOU'RE ALWAYS HOME TO ME
TTITLE13=PENNSYLVANIA YOU'RE ALWAYS HOME TO ME
EXTD=
EXTT0=
EXTT1=
EXTT2=
EXTT3=
EXTT4=
EXTT5=
EXTT6=
EXTT7=
EXTT8=
EXTT9=
EXTT10=
EXTT11=
EXTT12=
EXTT13=
PLAYORDER=
